<svg xmlns="http://www.w3.org/2000/svg" viewBox="0 0 760 500" role="img" aria-labelledby="title desc">
  <title id="title">Schema pancreasului endocrin</title>
  <desc id="desc">Diagramă cu pancreas, duoden, canal pancreatic și insulele Langerhans.</desc>
  <rect width="760" height="500" fill="#f8fbff"/>
  <path d="M188 178 C130 187 92 235 99 292 C107 356 164 389 218 360 C251 342 258 306 241 277 C224 247 188 257 176 286 C166 310 184 334 208 327 C223 322 231 306 223 292" fill="none" stroke="#b45309" stroke-width="34" stroke-linecap="round"/>
  <path d="M210 248 C304 181 478 158 618 204 C660 218 671 257 636 284 C563 340 373 325 240 286 C201 275 178 270 210 248 Z" fill="#f6b35f" stroke="#b45309" stroke-width="5"/>
  <path d="M248 266 C360 230 476 224 602 252" stroke="#7c2d12" stroke-width="5" fill="none" stroke-linecap="round"/>
  <circle cx="506" cy="226" r="58" fill="#fef3c7" stroke="#0d9488" stroke-width="5"/>
  <g fill="#14b8a6">
    <circle cx="486" cy="210" r="8"/><circle cx="515" cy="205" r="7"/><circle cx="535" cy="230" r="8"/>
    <circle cx="500" cy="247" r="7"/><circle cx="475" cy="235" r="7"/>
  </g>
  <g font-family="Segoe UI, Arial, sans-serif" font-size="22" font-weight="700" fill="#1e3a5f">
    <text x="78" y="142">Duoden</text>
    <text x="324" y="142">Pancreas</text>
    <text x="574" y="180">Insulă Langerhans</text>
    <text x="574" y="212" font-size="16" font-weight="600" fill="#64748b">celule α și β</text>
    <text x="324" y="396">Canal pancreatic</text>
  </g>
  <g stroke="#0d9488" stroke-width="4" stroke-linecap="round" fill="none">
    <line x1="145" y1="150" x2="150" y2="242"/>
    <line x1="405" y1="150" x2="390" y2="211"/>
    <line x1="565" y1="188" x2="525" y2="218"/>
    <line x1="390" y1="374" x2="392" y2="250"/>
  </g>
</svg>
