<?xml version="1.0" encoding="UTF-8"?>
<!DOCTYPE svg PUBLIC "-//W3C//DTD SVG 1.1//EN" "http://www.w3.org/Graphics/SVG/1.1/DTD/svg11.dtd">
<svg version="1.1" xmlns="http://www.w3.org/2000/svg" xmlns:xlink="http://www.w3.org/1999/xlink" x="0" y="0" width="439.005" height="247.892" viewBox="0, 0, 439.005, 247.892">
  <g id="Layer_1">
    <path d="M174.345,164.363 C173.027,168.168 171.673,171.99 169.731,175.53 C166.695,181.269 161.236,189.496 159.656,195.923 C156.136,210.246 156.004,212.788 155.685,221.084 C155.685,230.528 163.341,238.184 172.784,238.184 C182.228,238.184 189.884,230.528 189.884,221.084 C189.884,211.641 182.473,196.163 173.616,192.888 C171.552,189.732 174.04,183.71 176.043,179.536 C178.542,174.455 181.116,169.411 183.68,164.363 L174.345,164.363 z" fill="#FFAE67"/>
    <path d="M166.735,164.363 C164.514,171.983 160.841,179.026 156.401,185.569 C148.243,197.054 138.72,203.676 132.338,213.125 C124.301,225.099 130.924,241.148 142.466,246.375 C154.009,251.602 174.597,242.76 176.407,228.453 C178.921,208.589 171.718,203.905 167.061,191.795 C166.454,190.217 167.262,186.495 167.425,185.362 C168.605,177.185 173.049,177.231 175.072,168.004 C175.597,165.363 175.392,166.578 175.719,164.363 L166.735,164.363 z" fill="#F438D6"/>
    <text transform="matrix(1, 0, 0, 1, 99.55, 190.655)">
      <tspan x="-44.775" y="3.5" font-family="OpenSans-Bold" font-size="10" fill="#F438D6">Anterior Pituitary</tspan>
    </text>
    <text transform="matrix(1, 0, 0, 1, 236.644, 206.127)">
      <tspan x="-46.76" y="3.5" font-family="OpenSans-Bold" font-size="10" fill="#FFAE67">Posterior Pituitary</tspan>
    </text>
    <text transform="matrix(1, 0, 0, 1, 215.639, 171.863)">
      <tspan x="-34.812" y="3.5" font-family="OpenSans-Bold" font-size="10" fill="#929292">Infundibulum</tspan>
    </text>
    <path d="M227.134,90.789 C240.477,86.706 241.065,81.096 239.193,75.406 C237.322,69.717 231.305,63.665 220.358,70.185 C212.642,74.78 206.932,80.684 208.299,85.567 C209.606,90.24 218.546,93.417 227.134,90.789 z" fill="#3866FF"/>
    <path d="M184.219,79.177 C183.096,93.248 178.79,103.117 197.618,105.887 C206.997,107.266 213.961,95.711 215.084,81.64 C216.207,67.569 209.766,57.724 201.685,54.93 C185.402,49.3 185.342,65.105 184.219,79.177 z" fill="#3FCA00"/>
    <path d="M199.066,66.527 C205.459,75.192 214.287,79.527 218.784,76.209 C223.281,72.891 221.744,63.177 215.351,54.512 C208.958,45.847 200.13,41.512 195.633,44.83 C191.136,48.147 192.673,57.862 199.066,66.527 z" fill="#00A51C"/>
    <path d="M258.167,59.662 L258.167,59.662 C252.071,58.028 245.804,61.646 244.171,67.742 L241.998,75.852 C240.364,81.948 243.982,88.215 250.078,89.848 L250.078,89.848 C256.175,91.481 262.441,87.864 264.074,81.767 L266.247,73.658 C267.881,67.562 264.263,61.295 258.167,59.662 z" fill="#C3262F"/>
    <path d="M251.892,97.507 C247.239,97.343 242.912,98.952 238.859,101.089 C230.672,105.685 225.997,112.905 228.417,117.216 C230.386,120.221 233.122,125.757 236.167,127.115 C242.55,129.962 253.524,125.494 254.259,125.183 C260.115,122.259 264.045,116.419 263.816,112.115 C263.536,106.853 262.566,105.999 260.432,103.196 C255.792,97.905 254.301,97.873 251.892,97.507 z" fill="#F42300"/>
    <path d="M230.333,102.811 C234.855,95.052 233.94,86.092 228.29,82.799 C222.639,79.506 214.393,83.126 209.871,90.886 C205.349,98.645 206.263,107.605 211.914,110.898 C217.564,114.191 225.811,110.57 230.333,102.811 z" fill="#2663AE"/>
    <path d="M200.616,135.776 C202.536,137.559 204.151,137.9 212.293,130.17 C219.681,123.154 218.936,119.891 217.016,118.109 C215.096,116.326 209.869,118.837 205.34,123.715 C200.811,128.594 198.696,133.994 200.616,135.776 z" fill="#0085CF"/>
    <path d="M176.059,104.815 C183.534,104.858 189.594,93.107 189.594,78.664 C189.594,64.222 193.055,52.617 176.059,52.514 C163.922,52.44 162.197,64.226 162.524,78.664 C162.966,98.121 163.407,104.741 176.059,104.815 z" fill="#631982"/>
    <path d="M158.773,104.815 C161.213,103.029 166.423,94.29 166.423,82.306 C166.423,70.321 166.5,61.529 158.037,60.606 C153.991,60.164 150.24,60.753 149.21,63.695 C147.67,68.096 150.681,75.17 150.828,82.673 C150.925,87.612 148.831,101.377 151.564,105.256 C154.297,109.135 157.154,105.999 158.773,104.815 z" fill="#8223AA"/>
    <path d="M202.103,120.079 C205.132,116.01 197.99,109.641 189.237,108.401 C180.302,107.136 173.164,114.712 176.506,120.265 C181.197,128.059 185.467,120.981 188.802,120.037 C192.076,119.11 195.75,128.614 202.103,120.079 z" fill="#4CEC00"/>
    <path d="M159.757,123.054 C162.038,123.879 164.997,121.478 166.367,117.69 C167.737,113.903 166.999,110.164 164.719,109.339 C162.438,108.514 159.479,110.916 158.109,114.703 C156.739,118.49 157.477,122.229 159.757,123.054 z" fill="#00CA24"/>
    <g>
      <text transform="matrix(1, 0, 0, 1, 239.246, 13.18)">
        <tspan x="-32.248" y="3.5" font-family="OpenSans-Bold" font-size="10" fill="#3866FF">Dorsomedial </tspan>
      </text>
      <text transform="matrix(1, 0, 0, 1, 239.245, 27.18)">
        <tspan x="-19.895" y="3.5" font-family="OpenSans-Bold" font-size="10" fill="#3866FF">nucleus</tspan>
      </text>
    </g>
    <g>
      <path d="M237.872,34.68 L232.451,56.134" fill-opacity="0" stroke="#3866FF" stroke-width="1"/>
      <path d="M235.36,56.869 L230.492,63.891 L229.543,55.399 M232.451,56.134 L230.492,63.891" fill-opacity="0" stroke="#3866FF" stroke-width="1"/>
    </g>
    <text transform="matrix(1, 0, 0, 1, 348.535, 74.082)">
      <tspan x="-80.458" y="3.5" font-family="OpenSans-Bold" font-size="10" fill="#C3262F">Posterior Hypothalamic nucleus</tspan>
    </text>
    <text transform="matrix(1, 0, 0, 1, 299.844, 123.946)">
      <tspan x="-39.423" y="3.5" font-family="OpenSans-Bold" font-size="10" fill="#F42300">Mamillary body</tspan>
    </text>
    <text transform="matrix(1, 0, 0, 1, 348.535, 101.677)">
      <tspan x="-55.119" y="3.5" font-family="OpenSans-Bold" font-size="10" fill="#2663AE">Ventromedial nucleus</tspan>
    </text>
    <g>
      <path d="M290.665,101.483 L241.646,95.78" fill-opacity="0" stroke="#2663AE" stroke-width="1"/>
      <path d="M241.3,98.76 L233.7,94.856 L241.993,92.8 M241.646,95.78 L233.7,94.856" fill-opacity="0" stroke="#2663AE" stroke-width="1"/>
    </g>
    <text transform="matrix(1, 0, 0, 1, 206.586, 144.883)">
      <tspan x="-40.815" y="3.5" font-family="OpenSans-Bold" font-size="10" fill="#0086CF">Arcuate nucleus</tspan>
    </text>
    <text transform="matrix(1, 0, 0, 1, 141.269, 129.334)">
      <tspan x="-48.115" y="3.5" font-family="OpenSans-Bold" font-size="10" fill="#4CEC00">Supraoptic nucleus</tspan>
    </text>
    <text transform="matrix(1, 0, 0, 1, 93.012, 116.197)">
      <tspan x="-62.673" y="3.5" font-family="OpenSans-Bold" font-size="10" fill="#01CA24">Suprachiasmatic nucleus</tspan>
    </text>
    <text transform="matrix(1, 0, 0, 1, 103.95, 51.77)">
      <tspan x="-61.821" y="3.5" font-family="OpenSans-Bold" font-size="10" fill="#631982">Medial pre-optic nucleus</tspan>
    </text>
    <text transform="matrix(1, 0, 0, 1, 84.113, 83.806)">
      <tspan x="-62.602" y="3.5" font-family="OpenSans-Bold" font-size="10" fill="#8223AA">Lateral pre-optic nucleus</tspan>
    </text>
    <text transform="matrix(1, 0, 0, 1, 137.937, 7.5)">
      <tspan x="-60.268" y="3.5" font-family="OpenSans-Bold" font-size="10" fill="#00A51B">Paraventricular nucleus</tspan>
    </text>
    <text transform="matrix(1, 0, 0, 1, 79.487, 27.18)">
      <tspan x="-77.934" y="3.5" font-family="OpenSans-Bold" font-size="10" fill="#3FCA00">Anterior hypothalamic nucleus</tspan>
    </text>
    <g>
      <path d="M189.384,15.921 L196.167,33.501" fill-opacity="0" stroke="#00A51B" stroke-width="1"/>
      <path d="M198.966,32.421 L199.047,40.964 L193.368,34.581 M196.167,33.501 L199.047,40.964" fill-opacity="0" stroke="#00A51B" stroke-width="1"/>
    </g>
    <g>
      <path d="M161.988,29.49 L182.556,47.151" fill-opacity="0" stroke="#3FCA00" stroke-width="1"/>
      <path d="M184.51,44.874 L188.625,52.362 L180.601,49.427 M182.556,47.151 L188.625,52.362" fill-opacity="0" stroke="#3FCA00" stroke-width="1"/>
    </g>
  </g>
</svg>
